<?xml version="1.0" standalone="no"?>
<!DOCTYPE svg PUBLIC "-//W3C//DTD SVG 20010904//EN"
 "http://www.w3.org/TR/2001/REC-SVG-20010904/DTD/svg10.dtd">
<svg version="1.0" xmlns="http://www.w3.org/2000/svg"
 width="512.000000pt" height="512.000000pt" viewBox="0 0 512.000000 512.000000"
 preserveAspectRatio="xMidYMid meet">

<g transform="translate(0.000000,512.000000) scale(0.100000,-0.100000)"
fill="#000000" stroke="none">
<path d="M2475 5110 c-62 -8 -148 -35 -197 -61 -32 -17 -2003 -1606 -2035
-1640 -107 -117 -99 -321 16 -433 81 -77 155 -96 389 -96 l152 0 0 -960 0
-960 -77 0 c-255 -1 -422 -90 -508 -272 -139 -294 40 -632 360 -678 96 -13
3874 -13 3970 0 320 46 499 384 360 678 -86 182 -253 271 -507 272 l-78 0 0
960 0 960 153 0 c174 0 252 10 311 41 162 83 218 294 120 451 -29 46 4 19
-1104 913 -669 540 -942 755 -985 775 -101 46 -228 65 -340 50z m185 -323 c26
-10 1878 -1489 1970 -1573 12 -12 -318 -14 -2064 -14 -1203 0 -2076 4 -2074 9
7 20 1936 1566 1968 1578 45 16 155 16 200 0z m-1220 -2867 l0 -960 -160 0
-160 0 0 960 0 960 160 0 160 0 0 -960z m640 0 l0 -960 -160 0 -160 0 0 960 0
960 160 0 160 0 0 -960z m640 0 l0 -960 -160 0 -160 0 0 960 0 960 160 0 160
0 0 -960z m640 0 l0 -960 -160 0 -160 0 0 960 0 960 160 0 160 0 0 -960z m640
0 l0 -960 -160 0 -160 0 0 960 0 960 160 0 160 0 0 -960z m560 -1301 c105 -59
105 -219 0 -278 l-38 -21 -1962 0 -1962 0 -38 21 c-104 59 -105 217 -1 277
l36 22 1964 0 1963 0 38 -21z"/>
<path d="M2004 3997 l-552 -472 554 -3 c305 -1 803 -1 1108 0 l554 3 -549 470
c-301 258 -552 471 -556 472 -4 2 -256 -210 -559 -470z m689 -47 l129 -110
-262 0 -262 0 129 110 c70 60 130 110 133 110 3 0 63 -50 133 -110z"/>
</g>
</svg>
